<?xml version="1.0" encoding="UTF-8"?>
<svg version="1.1" xmlns="http://www.w3.org/2000/svg" width="136" height="136">
<path d="M0 0 C0.33 0 0.66 0 1 0 C1 32.01 1 64.02 1 97 C-31.01 97 -63.02 97 -96 97 C-89.17191283 89.03389831 -89.17191283 89.03389831 -86.5625 86.4375 C-86.04816406 85.92058594 -85.53382812 85.40367188 -85.00390625 84.87109375 C-84.01197266 83.94490234 -84.01197266 83.94490234 -83 83 C-82.58269623 82.51337387 -82.16539246 82.02674774 -81.73544312 81.52537537 C-78.07373833 77.70414868 -75.26701398 76.57082796 -69.97290039 76.31884766 C-67.59760715 76.31979137 -65.22217301 76.35332509 -62.84765625 76.4140625 C-60.96475136 76.42679703 -60.96475136 76.42679703 -59.04380798 76.43978882 C-55.72689762 76.46759422 -52.41252257 76.52136428 -49.09631348 76.5880127 C-45.70440432 76.64969858 -42.31223181 76.6768593 -38.91992188 76.70703125 C-32.27925428 76.77305241 -25.63977332 76.87335856 -19 77 C-19.03330917 76.32142944 -19.06661835 75.64285889 -19.10093689 74.94372559 C-19.43582701 67.80566466 -19.66020178 60.66986807 -19.82397461 53.52587891 C-19.89040018 50.86603807 -20.00061958 48.21871219 -20.1315918 45.56005859 C-21.30394943 21.12904494 -21.30394943 21.12904494 -13.76234436 12.4588623 C-11.20050541 9.91969316 -8.56127522 7.5729227 -5.71731567 5.35473633 C-3.64876458 3.72292143 -1.85039916 1.87124792 0 0 Z " fill="#C5AA6F" transform="translate(119,23)"/>
<path d="M0 0 C30.36 0 60.72 0 92 0 C90.02 2.31 88.04 4.62 86 7 C85.32195816 7.86507675 84.64391632 8.7301535 83.94532776 9.6214447 C80.88854031 13.20005731 78.50233826 15.62923832 73.8510437 16.77713013 C70.12639499 17.03949849 66.50871573 17.01349352 62.77734375 16.87890625 C61.42261518 16.86208527 60.06783123 16.84929058 58.71302795 16.84031677 C55.17534795 16.80622042 51.64108215 16.71807189 48.10473633 16.61798096 C44.48500755 16.52531639 40.86471778 16.48468354 37.24414062 16.43945312 C30.16137745 16.34340902 23.08091351 16.19015112 16 16 C16.04996376 17.09635521 16.04996376 17.09635521 16.10093689 18.21485901 C16.40395092 25.1696128 16.63105781 32.12335921 16.77718258 39.08305454 C16.85485915 42.66040864 16.95974693 46.2322296 17.1315918 49.80639648 C18.30158649 74.77116711 18.30158649 74.77116711 12.62939453 82.31201172 C9.12443492 86.13889034 5.34422736 89.17474656 1 92 C0.67 92 0.34 92 0 92 C0 61.64 0 31.28 0 0 Z " fill="#775A27" transform="translate(16,16)"/>
<path d="M0 0 C9.24 0 18.48 0 28 0 C28 9.24 28 18.48 28 28 C18.76 28 9.52 28 0 28 C0 18.76 0 9.52 0 0 Z " fill="#775929" transform="translate(52,52)"/>
<path d="M0 0 C30.36 0 60.72 0 92 0 C90.68 1.32 89.36 2.64 88 4 C88 3.01 88 2.02 88 1 C85.36 1.66 82.72 2.32 80 3 C80 2.34 80 1.68 80 1 C53.93 1 27.86 1 1 1 C1.09539063 6.88457031 1.19078125 12.76914062 1.2890625 18.83203125 C1.34487195 22.55532942 1.40008176 26.27861704 1.453125 30.00195312 C1.53741457 35.91457885 1.62394811 41.82711313 1.72363281 47.73950195 C1.80384279 52.50504786 1.87416544 57.27064564 1.93757248 62.03644371 C1.96353867 63.85659874 1.99309518 65.67670614 2.02626419 67.49674416 C2.07203926 70.04182426 2.10515951 72.5867731 2.13525391 75.13208008 C2.16006584 76.26604218 2.16006584 76.26604218 2.18537903 77.4229126 C2.21609733 81.18668287 2.1452572 82.7821142 0 86 C0 57.62 0 29.24 0 0 Z " fill="#715A35" transform="translate(16,16)"/>
</svg>
